<svg version="1.1" id="Layer_1" xmlns="http://www.w3.org/2000/svg" xmlns:xlink="http://www.w3.org/1999/xlink" x="0px" y="0px"
	 width="100%" viewBox="0 0 1200 1200" enable-background="new 0 0 1200 1200" xml:space="preserve">
<path fill="#0E2F56" opacity="1.000000" stroke="none" 
	d="
M818.000000,1201.000000 
	C545.333313,1201.000000 273.166656,1201.000000 1.000000,1201.000000 
	C1.000000,801.000000 1.000000,401.000000 1.000000,1.000000 
	C401.000000,1.000000 801.000000,1.000000 1201.000000,1.000000 
	C1201.000000,401.000000 1201.000000,801.000000 1201.000000,1201.000000 
	C1073.500000,1201.000000 946.000000,1201.000000 818.000000,1201.000000 
M471.314850,564.829712 
	C482.071136,551.707825 492.760468,538.529968 503.640778,525.511719 
	C505.797546,522.931213 505.792725,521.145325 504.231873,518.130615 
	C495.935577,502.106750 505.460938,483.517212 522.455811,482.053284 
	C537.297974,480.774780 552.041504,492.670166 553.977356,507.485687 
	C556.441040,526.340881 540.621643,539.756836 522.445251,533.958740 
	C519.306152,532.957397 518.006470,533.972229 516.329590,536.103149 
	C506.762115,548.261475 497.087891,560.335754 487.484711,572.466125 
	C484.449432,576.300110 481.521149,580.218811 478.346619,584.355835 
	C497.356720,597.161133 517.260742,604.093384 539.798157,603.259094 
	C587.647400,601.487915 623.595520,559.475342 615.635925,508.475464 
	C607.839600,458.522400 564.479248,421.271301 516.370789,420.874695 
	C481.491608,420.587097 451.002258,439.889893 439.106873,473.925293 
	C430.755219,497.821320 433.583191,521.149963 444.146606,543.696350 
	C449.161194,554.399353 455.919495,564.008057 464.946167,572.483154 
	C467.093201,569.930908 468.995636,567.669373 471.314850,564.829712 
M782.905762,476.670624 
	C781.635742,474.332336 780.458130,471.938110 779.081604,469.664307 
	C763.572632,444.045990 742.835815,425.010406 712.701233,418.605255 
	C692.000488,414.205261 673.053589,418.091400 658.446106,434.389252 
	C645.241943,449.121490 641.837708,467.190765 644.563599,486.224609 
	C649.658447,521.799744 668.650146,548.367493 699.329956,566.501770 
	C715.714294,576.186279 733.509583,580.442810 752.485413,575.777039 
	C767.278442,572.139771 778.404968,563.504089 785.457092,550.047485 
	C785.100952,549.403076 785.011841,549.021973 784.771790,548.838745 
	C770.090637,537.637268 755.425659,526.413635 740.633301,515.360657 
	C739.744141,514.696289 737.577515,514.940674 736.432190,515.556335 
	C731.061951,518.442932 725.621826,518.711304 720.072693,516.458191 
	C710.131653,512.421814 703.868958,504.947571 701.155579,494.739624 
	C699.336609,487.896454 699.692810,480.985382 705.193054,475.688202 
	C710.033142,471.026764 716.138123,469.999176 722.365356,472.270050 
	C735.154785,476.933960 741.824463,486.518097 743.867554,499.786621 
	C744.196533,501.923523 745.519836,504.427673 747.186218,505.752411 
	C756.820129,513.411255 766.679016,520.787964 776.495056,528.216248 
	C780.906799,531.554810 785.395569,534.791565 790.186401,538.322937 
	C790.629028,536.843689 790.847473,536.232422 790.994690,535.604370 
	C795.776306,515.204407 791.492920,496.017242 782.905762,476.670624 
M451.069061,291.473602 
	C439.747925,284.705658 428.426788,277.937714 416.974945,271.091644 
	C411.790344,279.565857 409.232635,287.910614 409.030731,296.883057 
	C408.615295,315.344513 414.721741,331.769562 426.813599,345.388367 
	C454.384949,376.441376 488.256805,391.154846 529.881470,380.729401 
	C549.761902,375.750153 564.181946,363.131348 569.833069,342.641144 
	C575.210815,323.142090 569.942688,305.223328 559.063171,289.067291 
	C541.070496,262.348083 515.266235,247.880722 483.548096,244.140152 
	C465.790771,242.046005 448.679230,244.641006 433.392883,254.811340 
	C430.212097,256.927582 427.311432,259.464813 423.796387,262.183380 
	C440.533600,272.158936 456.198700,281.572815 471.988586,290.772461 
	C473.385101,291.586121 475.811249,291.573303 477.395111,290.977142 
	C491.049225,285.837769 508.098389,293.081207 513.669373,306.582092 
	C517.427368,315.689484 514.123535,324.359985 505.436279,328.188965 
	C491.380524,334.384125 470.529358,324.425598 468.611389,309.301727 
	C467.662415,301.818665 464.109467,298.770935 458.534698,295.953217 
	C456.168793,294.757385 453.974487,293.222046 451.069061,291.473602 
M664.158020,299.118195 
	C667.146545,300.108856 670.110840,301.184631 673.136047,302.046539 
	C674.276367,302.371429 675.984497,302.744049 676.709778,302.173920 
	C685.255371,295.456085 693.663513,288.563293 702.182800,281.655731 
	C687.542908,268.501587 666.840637,257.832123 644.428406,257.298096 
	C615.356689,256.605316 593.589783,276.992218 598.500977,308.548431 
	C601.254333,326.239960 609.757874,341.146606 622.278015,353.694733 
	C642.363708,373.825256 665.650085,386.455719 695.233826,384.027283 
	C712.934692,382.574310 728.441956,369.826630 731.959595,352.433197 
	C736.936157,327.825592 726.211731,308.308380 711.360657,290.337158 
	C710.586670,290.614319 710.402527,290.631897 710.284485,290.729492 
	C703.108765,296.660065 696.011047,302.688354 688.732056,308.489075 
	C685.814819,310.813904 684.813354,312.570465 686.515625,316.653900 
	C691.187012,327.859894 684.212830,337.488953 672.806335,335.880585 
	C662.176270,334.381714 654.271851,328.520325 650.258667,318.413696 
	C645.730469,307.009857 651.031555,299.403473 664.158020,299.118195 
M543.963806,406.060455 
	C543.159790,406.444672 542.355774,406.828888 541.006348,407.473755 
	C577.381897,411.741302 612.864502,435.306946 628.566223,477.672211 
	C622.505798,434.082336 647.992371,407.490753 678.202393,405.544067 
	C639.248413,400.352722 612.165405,378.743042 595.890686,344.497253 
	C594.699097,351.961456 594.457947,360.443390 591.903259,368.159363 
	C584.448242,390.675629 567.202332,401.769531 543.963806,406.060455 
M543.341492,778.160950 
	C553.669678,777.703369 561.195129,772.754028 564.969849,763.236084 
	C570.842041,748.428894 570.905151,733.251587 565.032471,718.466003 
	C560.659363,707.455994 552.059265,702.597839 540.201050,703.033264 
	C529.471069,703.427368 521.297485,709.393555 517.516602,720.206360 
	C513.051697,732.975098 512.989319,745.987793 516.815308,758.913513 
	C520.706604,772.059631 528.708130,777.910095 543.341492,778.160950 
M241.562286,750.501465 
	C241.562286,759.259216 241.562286,768.017029 241.562286,776.786621 
	C245.475220,776.786621 248.752396,776.786621 252.437790,776.786621 
	C252.437790,765.781311 252.385498,754.986023 252.477341,744.192017 
	C252.498306,741.726746 252.404144,738.947571 253.472870,736.889221 
	C254.616608,734.686462 257.071869,733.164673 258.954681,731.345642 
	C259.915955,733.462952 261.088165,735.515869 261.761108,737.721191 
	C262.179474,739.092224 261.843231,740.693848 261.843292,742.192017 
	C261.843689,753.637634 261.843506,765.083252 261.843506,776.763733 
	C265.809540,776.763733 269.393524,776.763733 273.437653,776.763733 
	C273.437653,764.360229 273.467957,752.071411 273.414825,739.782959 
	C273.402618,736.961487 273.293488,734.114380 272.898193,731.325928 
	C271.995667,724.959412 267.939148,721.185608 261.646545,722.032837 
	C257.665161,722.568909 253.928894,724.925415 249.808807,726.575073 
	C245.555588,720.368591 241.227615,719.918823 232.822601,725.258606 
	C229.077484,721.196289 224.736450,723.706543 220.892105,723.161682 
	C220.892105,741.338623 220.892105,759.056274 220.892105,776.639648 
	C224.792435,776.639648 228.356506,776.639648 232.075043,776.639648 
	C232.075043,765.170349 231.967667,754.061340 232.147614,742.957031 
	C232.194870,740.040649 232.700821,736.953979 233.834763,734.304443 
	C234.443863,732.881287 236.782257,731.617126 238.442001,731.475891 
	C239.242325,731.407837 240.933609,734.036621 241.084015,735.556824 
	C241.541061,740.175903 241.443771,744.849915 241.562286,750.501465 
M1056.419312,698.988281 
	C1054.013428,698.988281 1051.607544,698.988281 1049.308350,698.988281 
	C1049.308350,725.393799 1049.308350,750.974792 1049.308350,776.772827 
	C1053.798706,776.772827 1058.034424,776.772827 1062.059448,776.772827 
	C1065.001587,768.939697 1058.904663,759.633789 1066.775757,752.520020 
	C1067.783569,753.683777 1068.566162,754.485352 1069.233032,755.373840 
	C1074.021729,761.754456 1078.714355,768.209290 1083.619629,774.498657 
	C1084.622437,775.784363 1086.356445,777.216309 1087.818848,777.290466 
	C1091.906250,777.497681 1096.028076,777.028748 1100.926514,776.787781 
	C1092.528564,765.630005 1084.497681,754.959900 1076.149292,743.867798 
	C1083.080444,736.576904 1089.706909,729.606567 1096.130249,722.849792 
	C1093.982422,722.849792 1091.013794,723.404541 1088.366821,722.718567 
	C1084.489624,721.713684 1082.196411,723.365845 1079.727051,725.834473 
	C1074.490601,731.069153 1069.067627,736.117310 1063.084595,741.851868 
	C1063.084595,727.057068 1063.084595,713.233032 1063.084595,698.988281 
	C1061.280884,698.988281 1059.313110,698.988281 1056.419312,698.988281 
M1023.248108,740.359436 
	C1024.906250,744.058472 1021.796387,742.779846 1020.487061,742.782654 
	C1012.089478,742.800781 1003.834656,743.472168 996.538086,748.155518 
	C990.599121,751.967346 987.521301,757.477905 988.368958,764.611694 
	C989.180481,771.441589 993.479675,775.561584 1001.211121,777.338074 
	C1009.241943,779.183350 1016.577454,777.709106 1023.008728,771.722778 
	C1023.205750,773.776428 1023.343567,775.212891 1023.485535,776.692627 
	C1028.158691,776.692627 1032.556152,776.692627 1037.162476,776.692627 
	C1037.162476,766.404358 1037.167236,756.429321 1037.156738,746.454346 
	C1037.155273,745.124146 1037.138550,743.788757 1037.024292,742.464844 
	C1036.476929,736.125183 1034.578003,730.400391 1029.279541,726.362732 
	C1019.347656,718.794434 999.707458,720.794617 991.199097,730.359253 
	C993.544312,732.839111 995.901184,735.331238 998.169556,737.729919 
	C999.714111,736.537476 1000.816040,735.490906 1002.090515,734.735474 
	C1009.056763,730.606567 1021.423340,730.786438 1023.248108,740.359436 
M329.051270,742.796021 
	C327.944885,731.790466 323.487274,725.368042 314.450867,723.109253 
	C302.983704,720.242920 292.254425,721.610596 282.882019,729.991394 
	C285.508087,732.813049 287.752747,735.224915 289.980774,737.618896 
	C301.760468,728.028687 316.014313,731.777100 315.544250,742.980408 
	C312.448242,742.980408 309.205872,742.441528 306.224396,743.094421 
	C300.305176,744.390381 294.204987,745.652588 288.779266,748.204041 
	C282.356262,751.224304 279.273407,758.611572 280.376038,764.896179 
	C281.671265,772.278381 286.550751,775.979187 293.473450,777.410522 
	C301.356720,779.040466 308.610748,777.790833 314.927917,771.666260 
	C315.194275,773.758850 315.388763,775.286926 315.578156,776.775024 
	C320.234131,776.775024 324.499542,776.775024 328.689331,776.775024 
	C328.886017,776.258423 329.092987,775.967529 329.093811,775.676147 
	C329.124176,765.027222 329.135406,754.378235 329.051270,742.796021 
M208.688904,767.134644 
	C210.367599,761.812012 212.994736,756.584839 213.542191,751.148254 
	C215.020157,736.470825 203.966721,723.162170 190.201248,721.991455 
	C177.063690,720.874146 166.615204,728.013855 162.636078,740.827332 
	C158.528061,754.055908 163.782516,768.893982 174.669846,774.809753 
	C186.059036,780.998230 199.070923,778.245056 208.688904,767.134644 
M671.145996,724.105896 
	C657.599915,718.784302 644.032837,723.217346 638.084045,734.908936 
	C631.160583,748.516174 634.521851,765.994934 645.444702,773.183899 
	C657.418030,781.064148 673.847717,779.221558 681.679077,769.454407 
	C679.712341,767.207275 677.782715,765.002441 675.814941,762.754089 
	C668.824585,768.022583 661.496887,769.438232 653.825989,765.171387 
	C649.715515,762.885071 647.470093,759.208496 647.943176,753.832886 
	C660.033447,753.832886 671.800659,753.832886 683.805420,753.832886 
	C684.633423,741.770813 682.954712,731.203247 671.145996,724.105896 
M792.273315,723.967773 
	C782.843750,719.214905 775.096619,722.391174 767.741211,730.278625 
	C767.741211,727.169800 767.741211,725.246399 767.741211,723.165039 
	C763.266235,723.165039 759.148560,723.165039 754.793823,723.165039 
	C754.793823,741.099976 754.793823,758.865295 754.793823,776.649780 
	C759.236206,776.649780 763.454041,776.649780 767.892761,776.649780 
	C767.892761,774.983521 767.890930,773.666504 767.893066,772.349548 
	C767.908508,762.851929 767.769104,753.350525 767.994751,743.857910 
	C768.148865,737.375977 773.848022,731.944824 779.855530,732.017395 
	C785.126099,732.080994 787.883911,735.904724 788.021423,743.553284 
	C788.111206,748.546753 788.048584,753.542908 788.050476,758.537903 
	C788.052734,764.624695 788.051025,770.711548 788.051025,776.756226 
	C792.863831,776.756226 796.962402,776.756226 800.991516,776.756226 
	C800.991516,763.710693 801.281128,750.905273 800.858154,738.123413 
	C800.672241,732.507263 797.861755,727.623962 792.273315,723.967773 
M593.972656,734.500305 
	C593.972656,745.057434 593.972656,755.614502 593.972656,766.705933 
	C588.449646,766.705933 583.525574,766.705933 578.628784,766.705933 
	C578.628784,770.349121 578.628784,773.447937 578.628784,776.643433 
	C593.430359,776.643433 607.957275,776.643433 622.432251,776.643433 
	C622.432251,773.195190 622.432251,770.115051 622.432251,766.396606 
	C617.260254,766.396606 612.372192,766.396606 607.063477,766.396606 
	C607.063477,743.564453 607.063477,721.382507 607.063477,699.316528 
	C597.532654,699.316528 588.450867,699.316528 579.272217,699.316528 
	C579.272217,702.742859 579.272217,705.849060 579.272217,709.578979 
	C584.183228,709.578979 588.910278,709.578979 593.440308,709.578979 
	C593.711914,710.504150 593.879333,710.809082 593.879700,711.114258 
	C593.889343,718.576294 593.881226,726.038330 593.972656,734.500305 
M350.310699,725.686340 
	C340.611542,733.540100 341.559967,744.571228 352.772675,749.957031 
	C358.570496,752.742004 364.895599,754.419006 370.946930,756.691223 
	C373.602051,757.688110 377.100555,758.935730 375.763519,762.365662 
	C374.957520,764.433289 371.891418,766.555481 369.564026,766.929382 
	C360.390869,768.402954 352.181610,766.434326 346.632141,757.486389 
	C344.379517,761.798401 342.415283,765.558411 340.514008,769.197876 
	C349.848053,777.564941 365.807312,780.458435 376.938812,776.083313 
	C383.901672,773.346619 388.116547,767.704407 388.146973,761.079468 
	C388.177185,754.502808 384.875061,750.147644 377.365479,747.104004 
	C375.063629,746.170959 372.638062,745.545227 370.276459,744.756897 
	C366.505249,743.498047 362.600403,742.512695 359.041199,740.807983 
	C357.616150,740.125427 356.204651,737.842590 356.202972,736.286621 
	C356.201721,735.159546 358.431000,733.236023 359.843170,733.055298 
	C363.553131,732.580688 367.584778,732.076355 371.065155,733.068298 
	C374.529816,734.055786 377.479858,736.848938 380.994720,739.064148 
	C382.712158,736.631104 384.962036,733.443726 387.161774,730.327454 
	C378.593262,721.167480 363.149048,719.123596 350.310699,725.686340 
M433.480804,722.996460 
	C422.727722,722.996460 411.974640,722.996460 401.401489,722.996460 
	C401.401489,727.069580 401.401489,730.463867 401.401489,734.244263 
	C410.481384,734.244263 419.200928,734.244263 428.804169,734.244263 
	C419.774902,744.665405 411.493042,754.569580 402.794281,764.092957 
	C399.329010,767.886719 397.904358,771.703613 399.268188,776.709351 
	C415.474792,776.709351 431.699158,776.709351 447.890381,776.709351 
	C447.890381,772.649658 447.890381,768.888184 447.890381,765.564087 
	C437.317841,765.564087 427.010651,765.564087 416.185455,765.564087 
	C425.023987,755.312195 433.313599,745.347717 442.023071,735.764832 
	C445.560333,731.872803 446.320221,727.924316 445.122650,722.996460 
	C441.454010,722.996460 437.962250,722.996460 433.480804,722.996460 
M941.540222,722.996460 
	C938.439514,722.996460 935.338867,722.996460 932.386292,722.996460 
	C932.386292,727.040161 932.386292,730.434082 932.386292,734.211182 
	C941.453918,734.211182 950.178589,734.211182 959.821960,734.211182 
	C950.787415,744.644043 942.518311,754.547607 933.821838,764.060608 
	C930.352600,767.855591 928.923706,771.674500 930.252197,776.722534 
	C946.440125,776.722534 962.665161,776.722534 978.909790,776.722534 
	C978.909790,772.668152 978.909790,768.898560 978.909790,765.564453 
	C968.349976,765.564453 958.035522,765.564453 947.189575,765.564453 
	C956.008423,755.332520 964.288574,745.369690 972.996399,735.795837 
	C976.533752,731.906738 977.300110,727.958557 976.144165,722.996460 
	C964.824097,722.996460 953.675964,722.996460 941.540222,722.996460 
M712.523193,722.989990 
	C708.781067,722.989990 705.038940,722.989990 701.441345,722.989990 
	C701.441345,726.846375 701.441345,729.936768 701.441345,733.566772 
	C707.774902,733.566772 713.834351,733.566772 720.040955,733.566772 
	C720.040955,748.892456 720.212585,763.669861 719.950867,778.439575 
	C719.855225,783.836121 716.424866,786.256775 711.024292,786.279785 
	C705.890503,786.301697 703.162048,783.164001 701.079773,778.490112 
	C698.212952,782.344482 695.769714,785.629272 693.380066,788.841980 
	C700.285522,797.046265 710.280396,799.538269 720.663086,795.876892 
	C728.567810,793.089478 733.703186,785.442078 733.872559,775.496704 
	C734.073608,763.689392 733.964966,751.876648 733.983582,740.066284 
	C733.992432,734.473145 733.985168,728.880066 733.985168,722.989990 
	C726.771851,722.989990 720.143433,722.989990 712.523193,722.989990 
M870.840576,747.125793 
	C869.903076,761.369446 876.532959,772.088989 888.958679,776.420044 
	C900.350281,780.390686 914.170776,776.876648 920.215820,768.291748 
	C917.979614,765.774841 915.703735,763.213318 913.446045,760.672241 
	C905.022339,767.533325 898.088928,768.830627 891.817993,764.948120 
	C885.406982,760.978882 882.747375,752.984497 884.929688,744.242859 
	C886.616699,737.485229 891.539551,733.149170 898.152039,732.596375 
	C905.514832,731.980896 909.940308,734.479309 912.886902,741.274414 
	C915.666565,738.250549 918.307556,735.377686 920.909485,732.547180 
	C914.878052,723.889038 903.629089,719.838623 892.983643,722.319092 
	C880.749634,725.169617 872.920349,733.665771 870.840576,747.125793 
M141.613861,714.153137 
	C146.045227,714.153137 150.476593,714.153137 154.858673,714.153137 
	C154.858673,710.100220 154.858673,706.695740 154.858673,703.215454 
	C137.135803,703.215454 119.708199,703.215454 102.228134,703.215454 
	C102.228134,706.963928 102.228134,710.485352 102.228134,714.303101 
	C108.726288,714.303101 114.844589,714.303101 121.587387,714.303101 
	C121.587387,735.301086 121.587387,756.006470 121.587387,776.685608 
	C126.134583,776.685608 130.042038,776.685608 134.357605,776.685608 
	C134.357605,755.783508 134.357605,735.193237 134.357605,714.153137 
	C136.729187,714.153137 138.690750,714.153137 141.613861,714.153137 
M838.498840,777.008301 
	C844.267944,777.008301 850.036987,777.008301 855.845337,777.008301 
	C855.845337,773.278870 855.845337,770.153442 855.845337,766.595703 
	C851.927124,766.595703 848.150208,766.595703 843.904419,766.595703 
	C843.904419,751.925049 843.904419,737.677490 843.904419,723.215698 
	C834.987793,723.215698 826.550354,723.215698 818.030884,723.215698 
	C818.030884,726.607117 818.030884,729.943481 818.030884,733.632751 
	C822.246887,733.632751 826.021423,733.632751 829.947144,733.632751 
	C829.947144,744.731323 829.947144,755.465149 829.947144,766.612732 
	C825.532104,766.612732 821.421082,766.612732 817.285339,766.612732 
	C817.285339,770.273193 817.285339,773.513794 817.285339,777.008301 
	C824.217102,777.008301 830.858276,777.008301 838.498840,777.008301 
M163.980972,923.633179 
	C163.980972,929.376587 163.980972,935.119995 163.980972,940.755127 
	C167.562393,940.755127 170.337753,940.755127 173.468948,940.755127 
	C173.468948,923.456116 173.468948,906.417847 173.468948,889.333984 
	C170.366959,889.333984 167.320267,889.333984 163.817230,889.333984 
	C163.817230,896.431396 163.817230,903.184570 163.817230,909.922607 
	C158.306915,909.922607 153.272781,909.922607 147.879822,909.922607 
	C147.879822,902.777161 147.879822,896.045166 147.879822,889.390564 
	C144.453812,889.390564 141.411285,889.390564 138.373260,889.390564 
	C138.373260,906.704590 138.373260,923.607788 138.373260,940.763550 
	C141.549362,940.763550 144.450150,940.763550 147.954605,940.763550 
	C147.954605,933.146545 147.954605,925.768738 147.954605,918.213867 
	C153.486237,918.213867 158.414749,918.213867 163.687408,918.213867 
	C163.791290,919.790588 163.886078,921.229248 163.980972,923.633179 
M794.096008,916.688171 
	C793.990234,918.847168 793.795898,921.006042 793.792969,923.165161 
	C793.774109,937.082703 806.167419,947.120789 817.352173,939.713074 
	C822.231506,940.385437 825.595825,940.849060 828.979004,941.315247 
	C828.979004,922.014221 828.979004,903.628052 828.979004,885.220093 
	C825.794495,885.220093 822.854980,885.220093 819.329712,885.220093 
	C819.329712,891.830688 819.329712,898.215088 819.329712,904.788452 
	C805.232117,899.878540 798.336670,903.065613 794.096008,916.688171 
M734.902039,900.512817 
	C734.902039,895.427856 734.902039,890.342834 734.902039,885.205566 
	C731.813782,885.205566 728.874573,885.205566 725.366089,885.205566 
	C725.366089,891.806702 725.366089,898.196289 725.366089,904.763184 
	C713.843628,900.918579 707.682861,902.152466 703.109253,908.915344 
	C698.085938,916.343201 698.776489,929.907654 704.517944,936.587585 
	C709.424622,942.296387 716.027344,942.943298 724.920776,940.002319 
	C728.278015,940.431580 731.635315,940.860840 734.901978,941.278503 
	C734.901978,927.418823 734.901978,914.463623 734.902039,900.512817 
M447.728668,941.013428 
	C449.837494,941.013428 451.946320,941.013428 454.014709,941.013428 
	C454.014709,922.073303 454.014709,903.690918 454.014709,885.179626 
	C450.860352,885.179626 447.915405,885.179626 444.405151,885.179626 
	C444.405151,891.767517 444.405151,898.171204 444.405151,904.745178 
	C432.653259,900.969543 426.695007,902.157654 422.123108,908.893372 
	C417.086609,916.313660 417.770142,929.898621 423.516541,936.585876 
	C428.421295,942.293701 434.973999,942.935608 443.974640,938.668579 
	C444.973389,939.470459 445.918518,940.229309 447.728668,941.013428 
M231.340561,923.498474 
	C231.340561,929.248413 231.340561,934.998352 231.340561,940.731323 
	C234.574661,940.731323 237.000595,940.731323 239.906723,940.731323 
	C239.906723,932.660767 239.862732,924.874023 239.939667,917.088440 
	C239.957428,915.289001 240.037979,913.336609 240.748444,911.749512 
	C241.254181,910.619690 242.864090,909.984131 243.981232,909.127991 
	C244.737778,910.259888 246.058472,911.349182 246.147934,912.531555 
	C246.448563,916.505615 246.325699,920.512878 246.336670,924.507507 
	C246.351562,929.922729 246.340393,935.338135 246.340393,940.734924 
	C249.412582,940.734924 251.669769,940.734924 254.270111,940.734924 
	C254.270111,938.633789 254.269592,936.817688 254.270233,935.001648 
	C254.272324,929.007751 254.124466,923.008606 254.335968,917.022095 
	C254.454819,913.658203 254.588760,909.937744 260.432037,908.918762 
	C260.432037,919.749268 260.432037,930.214050 260.432037,940.675720 
	C263.989197,940.675720 266.376465,940.675720 269.086914,940.675720 
	C269.086914,931.227417 269.104706,922.120789 269.078857,913.014343 
	C269.067291,908.938416 269.044434,904.169922 264.310028,903.154785 
	C260.777832,902.397522 256.774292,903.838501 251.552979,904.474365 
	C248.341965,901.822144 248.241486,901.826294 241.659668,903.744202 
	C241.000885,903.936096 240.199036,903.627014 239.462479,903.563721 
	C236.921066,903.345398 234.379135,903.133057 231.340881,902.876465 
	C231.340881,909.902283 231.340881,916.200928 231.340561,923.498474 
M393.738922,902.715027 
	C386.303986,901.311279 379.751556,902.939209 373.971344,907.970947 
	C375.933868,909.961731 377.529175,911.580017 379.287933,913.364075 
	C383.586823,909.735840 388.511200,908.455505 393.576904,910.963440 
	C395.321625,911.827087 396.187286,914.466248 397.987427,917.063110 
	C395.018341,917.211426 393.456055,916.991699 392.089020,917.409912 
	C386.636078,919.078491 380.727264,920.125549 376.041809,923.076904 
	C373.609467,924.609009 372.361206,929.655029 372.415802,933.084412 
	C372.482910,937.298157 375.956726,939.850464 380.208130,941.029236 
	C386.053009,942.649963 391.333740,941.696045 396.164703,938.087097 
	C398.757904,943.572083 403.035095,940.135376 406.826752,940.817627 
	C406.826752,932.346497 407.162994,924.376099 406.731842,916.447449 
	C406.303711,908.574402 402.468811,904.704102 393.738922,902.715027 
M608.466797,924.140564 
	C605.101990,929.946289 605.259216,934.693359 608.935059,938.273804 
	C613.660706,942.876831 622.592834,942.856323 630.213867,938.228027 
	C632.742004,943.555176 637.022583,940.143311 640.906921,940.835327 
	C640.906921,932.851379 641.063477,925.390137 640.863525,917.938538 
	C640.657898,910.275208 637.127808,905.276855 631.007874,903.276855 
	C622.622375,900.536621 612.710938,902.840454 608.589478,908.282532 
	C610.153320,909.980774 611.685120,911.644165 613.174072,913.261047 
	C622.471069,907.355591 629.837219,908.886841 630.747681,916.997009 
	C623.098999,917.854980 614.972046,917.356262 608.466797,924.140564 
M217.183426,908.454163 
	C209.483948,900.013733 193.822876,900.054382 187.832642,907.960938 
	C189.336456,909.801697 190.771988,911.558899 192.166275,913.265625 
	C201.472061,907.356323 208.835770,908.886597 209.789093,917.360962 
	C208.104813,917.360962 206.378830,916.990601 204.889832,917.427673 
	C199.567444,918.989868 194.037140,920.257935 189.145660,922.740845 
	C185.342087,924.671509 184.367111,929.101196 185.275986,933.284790 
	C186.199524,937.536011 189.173523,939.912659 193.424133,941.081177 
	C199.296127,942.695374 204.517410,941.511230 209.119812,938.190918 
	C212.115433,943.219788 216.179565,940.306702 219.977554,940.769897 
	C219.977554,936.636292 220.229309,933.127502 219.924377,929.667908 
	C219.317780,922.785950 218.404877,915.930969 217.183426,908.454163 
M981.144531,922.491333 
	C982.359131,933.193726 986.651184,939.000244 994.881653,941.075562 
	C1003.271545,943.191101 1010.808411,940.918274 1014.948425,934.812195 
	C1013.510620,933.546509 1012.042175,932.253784 1010.457458,930.858704 
	C1005.741211,934.798157 1000.492432,935.455322 995.460510,932.770813 
	C993.156372,931.541565 991.837158,928.466309 990.071289,926.228210 
	C990.458008,925.787903 990.844727,925.347534 991.231445,924.907227 
	C999.475098,924.907227 1007.718689,924.907227 1016.239868,924.907227 
	C1016.806702,917.244202 1016.060120,910.375732 1009.860596,905.623718 
	C1004.229370,901.307190 997.803162,901.065369 991.470032,904.069885 
	C984.163147,907.536316 981.781250,914.117310 981.144531,922.491333 
M888.603455,912.250183 
	C888.049500,917.264832 886.310547,922.492126 887.165222,927.253906 
	C889.661804,941.162537 906.897156,946.627869 917.151550,937.191711 
	C923.418762,931.424622 924.953430,924.143188 922.821289,916.222900 
	C920.737122,908.480774 915.494507,903.623413 907.425232,902.493225 
	C899.331055,901.359497 893.239441,904.754333 888.603455,912.250183 
M519.070923,937.461060 
	C526.854187,943.150940 536.006470,943.276672 542.538879,937.783325 
	C549.696655,931.764282 551.772888,920.909912 547.404968,912.344666 
	C543.484192,904.656250 535.045410,900.765503 526.375305,902.851135 
	C519.649170,904.469177 515.238586,908.966980 513.364502,915.393433 
	C511.035889,923.378174 512.264587,930.878662 519.070923,937.461060 
M969.010376,920.576294 
	C968.939453,918.416809 969.052429,916.232483 968.764709,914.102295 
	C967.739319,906.511658 962.381653,901.337585 955.925903,902.394958 
	C952.348022,902.980896 949.006958,905.012817 945.344849,906.478821 
	C945.121094,905.592346 944.796570,904.306458 944.514954,903.190491 
	C941.439148,903.190491 938.802307,903.190491 936.006836,903.190491 
	C936.006836,915.812134 936.006836,928.232117 936.006836,940.755493 
	C939.024841,940.755493 941.783813,940.755493 945.010437,940.755493 
	C945.010437,938.052612 944.994141,935.596741 945.013794,933.141113 
	C945.055054,927.984070 944.869751,922.809509 945.240540,917.675476 
	C945.574829,913.045288 949.784363,909.363098 953.886047,909.705566 
	C958.854919,910.120361 959.254150,913.948975 959.444458,917.715454 
	C959.594238,920.677917 959.505737,923.652832 959.509766,926.622192 
	C959.516235,931.337219 959.511536,936.052246 959.511536,940.716919 
	C963.103882,940.716919 965.860901,940.716919 969.010376,940.716919 
	C969.010376,934.138062 969.010376,927.846191 969.010376,920.576294 
M664.010437,935.371155 
	C664.014099,930.044617 663.905823,924.715088 664.052246,919.392456 
	C664.206177,913.797974 668.055054,909.588257 672.657837,909.670044 
	C676.620972,909.740479 678.464050,912.547424 678.530884,918.972412 
	C678.606140,926.210144 678.548218,933.449219 678.548218,940.616089 
	C682.021484,940.616089 684.911011,940.616089 688.008301,940.616089 
	C688.008301,932.411011 688.081421,924.598145 687.983643,916.787354 
	C687.913391,911.171997 686.345093,906.039551 680.877563,903.466003 
	C675.528381,900.948242 670.527832,902.228516 666.197205,906.226196 
	C665.775452,906.615417 665.102722,906.732605 664.379639,907.049072 
	C664.078552,905.528381 663.841125,904.329102 663.642761,903.327087 
	C660.513794,903.327087 657.777039,903.327087 654.942627,903.327087 
	C654.942627,915.950562 654.942627,928.236145 654.942627,940.700378 
	C656.077759,940.815002 657.038635,940.972168 658.002869,940.996338 
	C659.803345,941.041443 661.605652,941.009277 663.720825,941.009277 
	C663.831116,939.228394 663.920715,937.782349 664.010437,935.371155 
M1043.085449,902.378601 
	C1042.274658,902.564148 1041.450806,902.705994 1040.655029,902.942200 
	C1034.889038,904.654358 1031.281982,908.106445 1031.199463,912.600464 
	C1031.099854,918.018860 1034.531616,921.087036 1039.197510,922.876404 
	C1042.756226,924.241150 1046.561768,925.016235 1050.006714,926.599426 
	C1051.636597,927.348633 1052.679443,929.375183 1053.988281,930.822998 
	C1052.293823,931.892151 1050.693115,933.661011 1048.887695,933.903259 
	C1042.726318,934.729797 1037.233032,933.077637 1033.126953,927.280457 
	C1031.517212,930.463562 1030.203369,933.061584 1028.945190,935.549438 
	C1035.748901,941.169861 1043.316772,942.963623 1051.767822,941.199036 
	C1058.278931,939.839539 1062.513184,935.855530 1062.889893,930.734436 
	C1063.274414,925.507996 1060.319336,921.811646 1053.568604,919.406311 
	C1049.972900,918.125122 1046.212891,917.285278 1042.672119,915.880615 
	C1041.553345,915.436707 1040.148560,913.727356 1040.253662,912.744629 
	C1040.358521,911.765503 1042.073486,910.476624 1043.290527,910.181274 
	C1048.821289,908.838623 1053.705933,910.089233 1057.452759,915.095764 
	C1059.164185,912.550537 1060.611694,910.397888 1062.112671,908.165710 
	C1056.812500,903.035461 1050.655151,901.817322 1043.085449,902.378601 
M495.050659,933.375610 
	C493.271484,933.277893 491.492279,933.180237 489.249878,933.057129 
	C489.249878,922.855408 489.249878,913.093750 489.249878,903.267395 
	C482.840240,903.267395 476.926910,903.267395 471.195496,903.267395 
	C467.562714,912.786377 475.626282,909.939209 479.389221,911.041077 
	C479.389221,918.641785 479.389221,925.716309 479.389221,933.026123 
	C476.132904,933.258179 473.214417,933.466125 470.348938,933.670349 
	C470.348938,936.276794 470.348938,938.505371 470.348938,940.606079 
	C479.756073,940.606079 488.800476,940.606079 499.135345,940.606079 
	C497.837372,937.685059 496.891327,935.555969 495.050659,933.375610 
M340.268280,919.418945 
	C341.002167,915.022217 342.840118,911.633606 347.636230,910.481628 
	C352.096527,909.410339 355.230896,911.122070 357.926178,915.194824 
	C359.482147,912.118958 360.857483,909.400208 362.800873,905.558472 
	C358.527893,904.272156 354.952942,902.238159 351.492004,902.416504 
	C347.843719,902.604492 344.304291,904.904907 340.755676,906.267639 
	C339.199097,899.834961 334.298767,904.083130 330.606873,903.032898 
	C330.606873,915.969177 330.606873,928.217590 330.606873,940.612061 
	C333.895172,940.612061 336.909515,940.612061 340.224945,940.612061 
	C340.224945,933.566223 340.224945,926.929199 340.268280,919.418945 
M875.817505,907.475464 
	C874.126831,902.838623 869.785156,902.084473 866.073547,902.365173 
	C862.213684,902.657104 858.494263,904.804626 854.588867,906.184753 
	C854.415039,905.550171 854.081665,904.333252 853.805725,903.326172 
	C850.586548,903.326172 847.672241,903.326172 844.785645,903.326172 
	C844.785645,916.039246 844.785645,928.398499 844.785645,940.613708 
	C848.136414,940.613708 851.031677,940.613708 854.167969,940.613708 
	C854.167969,933.728210 854.079285,927.248535 854.198669,920.772766 
	C854.280640,916.323669 855.883667,912.507263 860.350281,910.841736 
	C865.029053,909.097229 868.997864,910.327881 871.918152,915.302063 
	C873.295959,912.544373 874.397400,910.339722 875.817505,907.475464 
M841.866150,697.675903 
	C837.981445,695.071899 834.063232,694.855042 830.482361,698.045715 
	C827.315430,700.867554 827.292114,705.468628 830.102295,708.789978 
	C833.010742,712.227478 838.180725,712.718750 841.731689,709.895081 
	C845.582642,706.832825 845.808838,702.881714 841.866150,697.675903 
M733.423340,707.786926 
	C735.519836,702.297791 733.730957,697.624023 728.966980,696.143921 
	C724.131104,694.641602 718.972900,697.390686 718.061157,701.956360 
	C717.106873,706.735107 720.545471,711.610291 725.589600,711.522766 
	C728.060913,711.479919 730.498413,709.485291 733.423340,707.786926 
M489.733032,890.976746 
	C489.635437,889.683899 489.846222,888.265503 489.381042,887.122253 
	C488.103973,883.983215 483.913544,882.616882 480.991058,884.379822 
	C478.006622,886.180298 477.056335,888.827576 478.851746,891.988953 
	C480.668182,895.187378 484.377014,895.964600 487.393494,893.849609 
	C488.182953,893.296082 488.737122,892.406860 489.733032,890.976746 
M594.415894,340.316498 
	C594.443115,340.544098 594.470276,340.771667 594.514099,341.138977 
	C594.550293,340.715759 594.574341,340.433746 594.415894,340.316498 
z"/>
<path fill="#FE304F" opacity="1.000000" stroke="none" 
	d="
M471.106476,565.118774 
	C468.995636,567.669373 467.093201,569.930908 464.946167,572.483154 
	C455.919495,564.008057 449.161194,554.399353 444.146606,543.696350 
	C433.583191,521.149963 430.755219,497.821320 439.106873,473.925293 
	C451.002258,439.889893 481.491608,420.587097 516.370789,420.874695 
	C564.479248,421.271301 607.839600,458.522400 615.635925,508.475464 
	C623.595520,559.475342 587.647400,601.487915 539.798157,603.259094 
	C517.260742,604.093384 497.356720,597.161133 478.346619,584.355835 
	C481.521149,580.218811 484.449432,576.300110 487.484711,572.466125 
	C497.087891,560.335754 506.762115,548.261475 516.329590,536.103149 
	C518.006470,533.972229 519.306152,532.957397 522.445251,533.958740 
	C540.621643,539.756836 556.441040,526.340881 553.977356,507.485687 
	C552.041504,492.670166 537.297974,480.774780 522.455811,482.053284 
	C505.460938,483.517212 495.935577,502.106750 504.231873,518.130615 
	C505.792725,521.145325 505.797546,522.931213 503.640778,525.511719 
	C492.760468,538.529968 482.071136,551.707825 471.106476,565.118774 
z"/>
<path fill="#FD304F" opacity="1.000000" stroke="none" 
	d="
M783.048645,477.019897 
	C791.492920,496.017242 795.776306,515.204407 790.994690,535.604370 
	C790.847473,536.232422 790.629028,536.843689 790.186401,538.322937 
	C785.395569,534.791565 780.906799,531.554810 776.495056,528.216248 
	C766.679016,520.787964 756.820129,513.411255 747.186218,505.752411 
	C745.519836,504.427673 744.196533,501.923523 743.867554,499.786621 
	C741.824463,486.518097 735.154785,476.933960 722.365356,472.270050 
	C716.138123,469.999176 710.033142,471.026764 705.193054,475.688202 
	C699.692810,480.985382 699.336609,487.896454 701.155579,494.739624 
	C703.868958,504.947571 710.131653,512.421814 720.072693,516.458191 
	C725.621826,518.711304 731.061951,518.442932 736.432190,515.556335 
	C737.577515,514.940674 739.744141,514.696289 740.633301,515.360657 
	C755.425659,526.413635 770.090637,537.637268 784.771790,548.838745 
	C785.011841,549.021973 785.100952,549.403076 785.457092,550.047485 
	C778.404968,563.504089 767.278442,572.139771 752.485413,575.777039 
	C733.509583,580.442810 715.714294,576.186279 699.329956,566.501770 
	C668.650146,548.367493 649.658447,521.799744 644.563599,486.224609 
	C641.837708,467.190765 645.241943,449.121490 658.446106,434.389252 
	C673.053589,418.091400 692.000488,414.205261 712.701233,418.605255 
	C742.835815,425.010406 763.572632,444.045990 779.081604,469.664307 
	C780.458130,471.938110 781.635742,474.332336 783.048645,477.019897 
z"/>
<path fill="#FD304F" opacity="1.000000" stroke="none" 
	d="
M451.385620,291.657318 
	C453.974487,293.222046 456.168793,294.757385 458.534698,295.953217 
	C464.109467,298.770935 467.662415,301.818665 468.611389,309.301727 
	C470.529358,324.425598 491.380524,334.384125 505.436279,328.188965 
	C514.123535,324.359985 517.427368,315.689484 513.669373,306.582092 
	C508.098389,293.081207 491.049225,285.837769 477.395111,290.977142 
	C475.811249,291.573303 473.385101,291.586121 471.988586,290.772461 
	C456.198700,281.572815 440.533600,272.158936 423.796387,262.183380 
	C427.311432,259.464813 430.212097,256.927582 433.392883,254.811340 
	C448.679230,244.641006 465.790771,242.046005 483.548096,244.140152 
	C515.266235,247.880722 541.070496,262.348083 559.063171,289.067291 
	C569.942688,305.223328 575.210815,323.142090 569.833069,342.641144 
	C564.181946,363.131348 549.761902,375.750153 529.881470,380.729401 
	C488.256805,391.154846 454.384949,376.441376 426.813599,345.388367 
	C414.721741,331.769562 408.615295,315.344513 409.030731,296.883057 
	C409.232635,287.910614 411.790344,279.565857 416.974945,271.091644 
	C428.426788,277.937714 439.747925,284.705658 451.385620,291.657318 
z"/>
<path fill="#FD304F" opacity="1.000000" stroke="none" 
	d="
M663.740234,299.071167 
	C651.031555,299.403473 645.730469,307.009857 650.258667,318.413696 
	C654.271851,328.520325 662.176270,334.381714 672.806335,335.880585 
	C684.212830,337.488953 691.187012,327.859894 686.515625,316.653900 
	C684.813354,312.570465 685.814819,310.813904 688.732056,308.489075 
	C696.011047,302.688354 703.108765,296.660065 710.284485,290.729492 
	C710.402527,290.631897 710.586670,290.614319 711.360657,290.337158 
	C726.211731,308.308380 736.936157,327.825592 731.959595,352.433197 
	C728.441956,369.826630 712.934692,382.574310 695.233826,384.027283 
	C665.650085,386.455719 642.363708,373.825256 622.278015,353.694733 
	C609.757874,341.146606 601.254333,326.239960 598.500977,308.548431 
	C593.589783,276.992218 615.356689,256.605316 644.428406,257.298096 
	C666.840637,257.832123 687.542908,268.501587 702.182800,281.655731 
	C693.663513,288.563293 685.255371,295.456085 676.709778,302.173920 
	C675.984497,302.744049 674.276367,302.371429 673.136047,302.046539 
	C670.110840,301.184631 667.146545,300.108856 663.740234,299.071167 
z"/>
<path fill="#FC304F" opacity="1.000000" stroke="none" 
	d="
M544.355469,406.029541 
	C567.202332,401.769531 584.448242,390.675629 591.903259,368.159363 
	C594.457947,360.443390 594.699097,351.961456 595.890686,344.497253 
	C612.165405,378.743042 639.248413,400.352722 678.202393,405.544067 
	C647.992371,407.490753 622.505798,434.082336 628.566223,477.672211 
	C612.864502,435.306946 577.381897,411.741302 541.006348,407.473755 
	C542.355774,406.828888 543.159790,406.444672 544.355469,406.029541 
z"/>
<path fill="#F8F9FA" opacity="1.000000" stroke="none" 
	d="
M542.881104,778.161621 
	C528.708130,777.910095 520.706604,772.059631 516.815308,758.913513 
	C512.989319,745.987793 513.051697,732.975098 517.516602,720.206360 
	C521.297485,709.393555 529.471069,703.427368 540.201050,703.033264 
	C552.059265,702.597839 560.659363,707.455994 565.032471,718.466003 
	C570.905151,733.251587 570.842041,748.428894 564.969849,763.236084 
	C561.195129,772.754028 553.669678,777.703369 542.881104,778.161621 
M527.433350,742.231995 
	C528.562378,748.060791 529.200134,754.044373 530.972351,759.670532 
	C532.449585,764.359985 536.183350,767.222534 541.564636,767.289124 
	C547.192383,767.358765 550.904541,764.279846 552.627319,759.507690 
	C557.232239,746.752014 557.543762,733.840210 552.169373,721.148315 
	C550.282288,716.692017 546.943176,713.957275 541.805969,713.953003 
	C536.701782,713.948669 532.715271,716.542542 531.369751,721.014587 
	C529.391541,727.589172 528.680176,734.544922 527.433350,742.231995 
z"/>
<path fill="#FBFBFB" opacity="1.000000" stroke="none" 
	d="
M241.562317,750.001953 
	C241.443771,744.849915 241.541061,740.175903 241.084015,735.556824 
	C240.933609,734.036621 239.242325,731.407837 238.442001,731.475891 
	C236.782257,731.617126 234.443863,732.881287 233.834763,734.304443 
	C232.700821,736.953979 232.194870,740.040649 232.147614,742.957031 
	C231.967667,754.061340 232.075043,765.170349 232.075043,776.639648 
	C228.356506,776.639648 224.792435,776.639648 220.892105,776.639648 
	C220.892105,759.056274 220.892105,741.338623 220.892105,723.161682 
	C224.736450,723.706543 229.077484,721.196289 232.822601,725.258606 
	C241.227615,719.918823 245.555588,720.368591 249.808807,726.575073 
	C253.928894,724.925415 257.665161,722.568909 261.646545,722.032837 
	C267.939148,721.185608 271.995667,724.959412 272.898193,731.325928 
	C273.293488,734.114380 273.402618,736.961487 273.414825,739.782959 
	C273.467957,752.071411 273.437653,764.360229 273.437653,776.763733 
	C269.393524,776.763733 265.809540,776.763733 261.843506,776.763733 
	C261.843506,765.083252 261.843689,753.637634 261.843292,742.192017 
	C261.843231,740.693848 262.179474,739.092224 261.761108,737.721191 
	C261.088165,735.515869 259.915955,733.462952 258.954651,731.345642 
	C257.071869,733.164673 254.616608,734.686462 253.472870,736.889221 
	C252.404144,738.947571 252.498306,741.726746 252.477341,744.192017 
	C252.385498,754.986023 252.437790,765.781311 252.437790,776.786621 
	C248.752396,776.786621 245.475220,776.786621 241.562286,776.786621 
	C241.562286,768.017029 241.562286,759.259216 241.562317,750.001953 
z"/>
<path fill="#F6F7F8" opacity="1.000000" stroke="none" 
	d="
M1056.882324,698.988281 
	C1059.313110,698.988281 1061.280884,698.988281 1063.084595,698.988281 
	C1063.084595,713.233032 1063.084595,727.057068 1063.084595,741.851868 
	C1069.067627,736.117310 1074.490601,731.069153 1079.727051,725.834473 
	C1082.196411,723.365845 1084.489624,721.713684 1088.366821,722.718567 
	C1091.013794,723.404541 1093.982422,722.849792 1096.130249,722.849792 
	C1089.706909,729.606567 1083.080444,736.576904 1076.149292,743.867798 
	C1084.497681,754.959900 1092.528564,765.630005 1100.926514,776.787781 
	C1096.028076,777.028748 1091.906250,777.497681 1087.818848,777.290466 
	C1086.356445,777.216309 1084.622437,775.784363 1083.619629,774.498657 
	C1078.714355,768.209290 1074.021729,761.754456 1069.233032,755.373840 
	C1068.566162,754.485352 1067.783569,753.683777 1066.775757,752.520020 
	C1058.904663,759.633789 1065.001587,768.939697 1062.059448,776.772827 
	C1058.034424,776.772827 1053.798706,776.772827 1049.308350,776.772827 
	C1049.308350,750.974792 1049.308350,725.393799 1049.308350,698.988281 
	C1051.607544,698.988281 1054.013428,698.988281 1056.882324,698.988281 
z"/>
<path fill="#F8F9FA" opacity="1.000000" stroke="none" 
	d="
M1023.151733,739.976624 
	C1021.423340,730.786438 1009.056763,730.606567 1002.090515,734.735474 
	C1000.816040,735.490906 999.714111,736.537476 998.169556,737.729919 
	C995.901184,735.331238 993.544312,732.839111 991.199097,730.359253 
	C999.707458,720.794617 1019.347656,718.794434 1029.279541,726.362732 
	C1034.578003,730.400391 1036.476929,736.125183 1037.024292,742.464844 
	C1037.138550,743.788757 1037.155273,745.124146 1037.156738,746.454346 
	C1037.167236,756.429321 1037.162476,766.404358 1037.162476,776.692627 
	C1032.556152,776.692627 1028.158691,776.692627 1023.485535,776.692627 
	C1023.343567,775.212891 1023.205750,773.776428 1023.008728,771.722778 
	C1016.577454,777.709106 1009.241943,779.183350 1001.211121,777.338074 
	C993.479675,775.561584 989.180481,771.441589 988.368958,764.611694 
	C987.521301,757.477905 990.599121,751.967346 996.538086,748.155518 
	C1003.834656,743.472168 1012.089478,742.800781 1020.487061,742.782654 
	C1021.796387,742.779846 1024.906250,744.058472 1023.151733,739.976624 
M1012.060730,767.559875 
	C1020.290161,765.702454 1024.112915,760.665161 1023.441589,751.052368 
	C1017.392517,752.239441 1011.354736,752.924561 1005.720154,754.812683 
	C1003.855286,755.437500 1002.369324,759.053650 1001.969971,761.507141 
	C1001.722839,763.025757 1003.470581,765.540405 1005.012146,766.496948 
	C1006.679565,767.531738 1009.149109,767.273865 1012.060730,767.559875 
z"/>
<path fill="#F8F9FA" opacity="1.000000" stroke="none" 
	d="
M329.100281,743.262634 
	C329.135406,754.378235 329.124176,765.027222 329.093811,775.676147 
	C329.092987,775.967529 328.886017,776.258423 328.689331,776.775024 
	C324.499542,776.775024 320.234131,776.775024 315.578156,776.775024 
	C315.388763,775.286926 315.194275,773.758850 314.927917,771.666260 
	C308.610748,777.790833 301.356720,779.040466 293.473450,777.410522 
	C286.550751,775.979187 281.671265,772.278381 280.376038,764.896179 
	C279.273407,758.611572 282.356262,751.224304 288.779266,748.204041 
	C294.204987,745.652588 300.305176,744.390381 306.224396,743.094421 
	C309.205872,742.441528 312.448242,742.980408 315.544250,742.980408 
	C316.014313,731.777100 301.760468,728.028687 289.980774,737.618896 
	C287.752747,735.224915 285.508087,732.813049 282.882019,729.991394 
	C292.254425,721.610596 302.983704,720.242920 314.450867,723.109253 
	C323.487274,725.368042 327.944885,731.790466 329.100281,743.262634 
M293.737793,760.630188 
	C293.439331,765.058838 295.974213,766.822083 299.944733,767.412109 
	C309.374298,768.813477 315.877838,762.686096 315.653900,751.585083 
	C310.547882,752.135132 305.319427,752.040955 300.548706,753.472290 
	C297.915314,754.262390 296.049774,757.611694 293.737793,760.630188 
z"/>
<path fill="#F7F8F9" opacity="1.000000" stroke="none" 
	d="
M208.468597,767.419678 
	C199.070923,778.245056 186.059036,780.998230 174.669846,774.809753 
	C163.782516,768.893982 158.528061,754.055908 162.636078,740.827332 
	C166.615204,728.013855 177.063690,720.874146 190.201248,721.991455 
	C203.966721,723.162170 215.020157,736.470825 213.542191,751.148254 
	C212.994736,756.584839 210.367599,761.812012 208.468597,767.419678 
M180.736649,764.993591 
	C187.225662,768.671143 192.576523,767.828003 196.533051,762.504761 
	C201.442902,755.898865 201.597870,744.291626 196.865799,737.584351 
	C192.120667,730.858582 183.438660,730.899292 178.268127,737.317566 
	C173.667252,743.028748 172.978394,758.771301 180.736649,764.993591 
z"/>
<path fill="#F9F9FA" opacity="1.000000" stroke="none" 
	d="
M671.483276,724.284668 
	C682.954712,731.203247 684.633423,741.770813 683.805420,753.832886 
	C671.800659,753.832886 660.033447,753.832886 647.943176,753.832886 
	C647.470093,759.208496 649.715515,762.885071 653.825989,765.171387 
	C661.496887,769.438232 668.824585,768.022583 675.814941,762.754089 
	C677.782715,765.002441 679.712341,767.207275 681.679077,769.454407 
	C673.847717,779.221558 657.418030,781.064148 645.444702,773.183899 
	C634.521851,765.994934 631.160583,748.516174 638.084045,734.908936 
	C644.032837,723.217346 657.599915,718.784302 671.483276,724.284668 
M651.219238,735.720337 
	C649.936096,738.240967 648.652954,740.761536 647.161072,743.692078 
	C655.811890,743.692078 663.336670,743.692078 670.971863,743.692078 
	C670.865723,739.136963 669.607422,735.252075 665.645752,733.431274 
	C660.879333,731.240479 655.979065,731.393005 651.219238,735.720337 
z"/>
<path fill="#F9FAFA" opacity="1.000000" stroke="none" 
	d="
M792.608276,724.151123 
	C797.861755,727.623962 800.672241,732.507263 800.858154,738.123413 
	C801.281128,750.905273 800.991516,763.710693 800.991516,776.756226 
	C796.962402,776.756226 792.863831,776.756226 788.051025,776.756226 
	C788.051025,770.711548 788.052734,764.624695 788.050476,758.537903 
	C788.048584,753.542908 788.111206,748.546753 788.021423,743.553284 
	C787.883911,735.904724 785.126099,732.080994 779.855530,732.017395 
	C773.848022,731.944824 768.148865,737.375977 767.994751,743.857910 
	C767.769104,753.350525 767.908508,762.851929 767.893066,772.349548 
	C767.890930,773.666504 767.892761,774.983521 767.892761,776.649780 
	C763.454041,776.649780 759.236206,776.649780 754.793823,776.649780 
	C754.793823,758.865295 754.793823,741.099976 754.793823,723.165039 
	C759.148560,723.165039 763.266235,723.165039 767.741211,723.165039 
	C767.741211,725.246399 767.741211,727.169800 767.741211,730.278625 
	C775.096619,722.391174 782.843750,719.214905 792.608276,724.151123 
z"/>
<path fill="#FBFBFB" opacity="1.000000" stroke="none" 
	d="
M593.924438,734.000366 
	C593.881226,726.038330 593.889343,718.576294 593.879700,711.114258 
	C593.879333,710.809082 593.711914,710.504150 593.440308,709.578979 
	C588.910278,709.578979 584.183228,709.578979 579.272217,709.578979 
	C579.272217,705.849060 579.272217,702.742859 579.272217,699.316528 
	C588.450867,699.316528 597.532654,699.316528 607.063477,699.316528 
	C607.063477,721.382507 607.063477,743.564453 607.063477,766.396606 
	C612.372192,766.396606 617.260254,766.396606 622.432251,766.396606 
	C622.432251,770.115051 622.432251,773.195190 622.432251,776.643433 
	C607.957275,776.643433 593.430359,776.643433 578.628784,776.643433 
	C578.628784,773.447937 578.628784,770.349121 578.628784,766.705933 
	C583.525574,766.705933 588.449646,766.705933 593.972656,766.705933 
	C593.972656,755.614502 593.972656,745.057434 593.924438,734.000366 
z"/>
<path fill="#F8F8F9" opacity="1.000000" stroke="none" 
	d="
M350.620453,725.478394 
	C363.149048,719.123596 378.593262,721.167480 387.161774,730.327454 
	C384.962036,733.443726 382.712158,736.631104 380.994720,739.064148 
	C377.479858,736.848938 374.529816,734.055786 371.065155,733.068298 
	C367.584778,732.076355 363.553131,732.580688 359.843170,733.055298 
	C358.431000,733.236023 356.201721,735.159546 356.202972,736.286621 
	C356.204651,737.842590 357.616150,740.125427 359.041199,740.807983 
	C362.600403,742.512695 366.505249,743.498047 370.276459,744.756897 
	C372.638062,745.545227 375.063629,746.170959 377.365479,747.104004 
	C384.875061,750.147644 388.177185,754.502808 388.146973,761.079468 
	C388.116547,767.704407 383.901672,773.346619 376.938812,776.083313 
	C365.807312,780.458435 349.848053,777.564941 340.514008,769.197876 
	C342.415283,765.558411 344.379517,761.798401 346.632141,757.486389 
	C352.181610,766.434326 360.390869,768.402954 369.564026,766.929382 
	C371.891418,766.555481 374.957520,764.433289 375.763519,762.365662 
	C377.100555,758.935730 373.602051,757.688110 370.946930,756.691223 
	C364.895599,754.419006 358.570496,752.742004 352.772675,749.957031 
	C341.559967,744.571228 340.611542,733.540100 350.620453,725.478394 
z"/>
<path fill="#FAFAFB" opacity="1.000000" stroke="none" 
	d="
M433.975647,722.996460 
	C437.962250,722.996460 441.454010,722.996460 445.122650,722.996460 
	C446.320221,727.924316 445.560333,731.872803 442.023071,735.764832 
	C433.313599,745.347717 425.023987,755.312195 416.185455,765.564087 
	C427.010651,765.564087 437.317841,765.564087 447.890381,765.564087 
	C447.890381,768.888184 447.890381,772.649658 447.890381,776.709351 
	C431.699158,776.709351 415.474792,776.709351 399.268188,776.709351 
	C397.904358,771.703613 399.329010,767.886719 402.794281,764.092957 
	C411.493042,754.569580 419.774902,744.665405 428.804169,734.244263 
	C419.200928,734.244263 410.481384,734.244263 401.401489,734.244263 
	C401.401489,730.463867 401.401489,727.069580 401.401489,722.996460 
	C411.974640,722.996460 422.727722,722.996460 433.975647,722.996460 
z"/>
<path fill="#FAFAFB" opacity="1.000000" stroke="none" 
	d="
M942.034058,722.996460 
	C953.675964,722.996460 964.824097,722.996460 976.144165,722.996460 
	C977.300110,727.958557 976.533752,731.906738 972.996399,735.795837 
	C964.288574,745.369690 956.008423,755.332520 947.189575,765.564453 
	C958.035522,765.564453 968.349976,765.564453 978.909790,765.564453 
	C978.909790,768.898560 978.909790,772.668152 978.909790,776.722534 
	C962.665161,776.722534 946.440125,776.722534 930.252197,776.722534 
	C928.923706,771.674500 930.352600,767.855591 933.821838,764.060608 
	C942.518311,754.547607 950.787415,744.644043 959.821960,734.211182 
	C950.178589,734.211182 941.453918,734.211182 932.386292,734.211182 
	C932.386292,730.434082 932.386292,727.040161 932.386292,722.996460 
	C935.338867,722.996460 938.439514,722.996460 942.034058,722.996460 
z"/>
<path fill="#F7F8F9" opacity="1.000000" stroke="none" 
	d="
M713.019104,722.989990 
	C720.143433,722.989990 726.771851,722.989990 733.985168,722.989990 
	C733.985168,728.880066 733.992432,734.473145 733.983582,740.066284 
	C733.964966,751.876648 734.073608,763.689392 733.872559,775.496704 
	C733.703186,785.442078 728.567810,793.089478 720.663086,795.876892 
	C710.280396,799.538269 700.285522,797.046265 693.380066,788.841980 
	C695.769714,785.629272 698.212952,782.344482 701.079773,778.490112 
	C703.162048,783.164001 705.890503,786.301697 711.024292,786.279785 
	C716.424866,786.256775 719.855225,783.836121 719.950867,778.439575 
	C720.212585,763.669861 720.040955,748.892456 720.040955,733.566772 
	C713.834351,733.566772 707.774902,733.566772 701.441345,733.566772 
	C701.441345,729.936768 701.441345,726.846375 701.441345,722.989990 
	C705.038940,722.989990 708.781067,722.989990 713.019104,722.989990 
z"/>
<path fill="#F8F8F9" opacity="1.000000" stroke="none" 
	d="
M870.862427,746.713257 
	C872.920349,733.665771 880.749634,725.169617 892.983643,722.319092 
	C903.629089,719.838623 914.878052,723.889038 920.909485,732.547180 
	C918.307556,735.377686 915.666565,738.250549 912.886902,741.274414 
	C909.940308,734.479309 905.514832,731.980896 898.152039,732.596375 
	C891.539551,733.149170 886.616699,737.485229 884.929688,744.242859 
	C882.747375,752.984497 885.406982,760.978882 891.817993,764.948120 
	C898.088928,768.830627 905.022339,767.533325 913.446045,760.672241 
	C915.703735,763.213318 917.979614,765.774841 920.215820,768.291748 
	C914.170776,776.876648 900.350281,780.390686 888.958679,776.420044 
	C876.532959,772.088989 869.903076,761.369446 870.862427,746.713257 
z"/>
<path fill="#FCFCFC" opacity="1.000000" stroke="none" 
	d="
M141.133087,714.153137 
	C138.690750,714.153137 136.729187,714.153137 134.357605,714.153137 
	C134.357605,735.193237 134.357605,755.783508 134.357605,776.685608 
	C130.042038,776.685608 126.134583,776.685608 121.587387,776.685608 
	C121.587387,756.006470 121.587387,735.301086 121.587387,714.303101 
	C114.844589,714.303101 108.726288,714.303101 102.228134,714.303101 
	C102.228134,710.485352 102.228134,706.963928 102.228134,703.215454 
	C119.708199,703.215454 137.135803,703.215454 154.858673,703.215454 
	C154.858673,706.695740 154.858673,710.100220 154.858673,714.153137 
	C150.476593,714.153137 146.045227,714.153137 141.133087,714.153137 
z"/>
<path fill="#F8F8F9" opacity="1.000000" stroke="none" 
	d="
M837.999146,777.008301 
	C830.858276,777.008301 824.217102,777.008301 817.285339,777.008301 
	C817.285339,773.513794 817.285339,770.273193 817.285339,766.612732 
	C821.421082,766.612732 825.532104,766.612732 829.947144,766.612732 
	C829.947144,755.465149 829.947144,744.731323 829.947144,733.632751 
	C826.021423,733.632751 822.246887,733.632751 818.030884,733.632751 
	C818.030884,729.943481 818.030884,726.607117 818.030884,723.215698 
	C826.550354,723.215698 834.987793,723.215698 843.904419,723.215698 
	C843.904419,737.677490 843.904419,751.925049 843.904419,766.595703 
	C848.150208,766.595703 851.927124,766.595703 855.845337,766.595703 
	C855.845337,770.153442 855.845337,773.278870 855.845337,777.008301 
	C850.036987,777.008301 844.267944,777.008301 837.999146,777.008301 
z"/>
<path fill="#F6304F" opacity="1.000000" stroke="none" 
	d="
M163.980927,923.150513 
	C163.886078,921.229248 163.791290,919.790588 163.687408,918.213867 
	C158.414749,918.213867 153.486237,918.213867 147.954605,918.213867 
	C147.954605,925.768738 147.954605,933.146545 147.954605,940.763550 
	C144.450150,940.763550 141.549362,940.763550 138.373260,940.763550 
	C138.373260,923.607788 138.373260,906.704590 138.373260,889.390564 
	C141.411285,889.390564 144.453812,889.390564 147.879822,889.390564 
	C147.879822,896.045166 147.879822,902.777161 147.879822,909.922607 
	C153.272781,909.922607 158.306915,909.922607 163.817230,909.922607 
	C163.817230,903.184570 163.817230,896.431396 163.817230,889.333984 
	C167.320267,889.333984 170.366959,889.333984 173.468948,889.333984 
	C173.468948,906.417847 173.468948,923.456116 173.468948,940.755127 
	C170.337753,940.755127 167.562393,940.755127 163.980972,940.755127 
	C163.980972,935.119995 163.980972,929.376587 163.980927,923.150513 
z"/>
<path fill="#F6304F" opacity="1.000000" stroke="none" 
	d="
M794.182190,916.291016 
	C798.336670,903.065613 805.232117,899.878540 819.329712,904.788452 
	C819.329712,898.215088 819.329712,891.830688 819.329712,885.220093 
	C822.854980,885.220093 825.794495,885.220093 828.979004,885.220093 
	C828.979004,903.628052 828.979004,922.014221 828.979004,941.315247 
	C825.595825,940.849060 822.231506,940.385437 817.352173,939.713074 
	C806.167419,947.120789 793.774109,937.082703 793.792969,923.165161 
	C793.795898,921.006042 793.990234,918.847168 794.182190,916.291016 
M809.083679,910.061890 
	C802.196655,914.220642 800.795898,926.045288 806.515137,931.743896 
	C810.630127,935.844055 816.697205,934.501953 818.178711,928.786499 
	C819.074890,925.329407 819.142029,921.542969 818.938110,917.940979 
	C818.602356,912.008606 816.054138,909.977295 809.083679,910.061890 
z"/>
<path fill="#F6304F" opacity="1.000000" stroke="none" 
	d="
M734.901978,901.010620 
	C734.901978,914.463623 734.901978,927.418823 734.901978,941.278503 
	C731.635315,940.860840 728.278015,940.431580 724.920776,940.002319 
	C716.027344,942.943298 709.424622,942.296387 704.517944,936.587585 
	C698.776489,929.907654 698.085938,916.343201 703.109253,908.915344 
	C707.682861,902.152466 713.843628,900.918579 725.366089,904.763184 
	C725.366089,898.196289 725.366089,891.806702 725.366089,885.205566 
	C728.874573,885.205566 731.813782,885.205566 734.902039,885.205566 
	C734.902039,890.342834 734.902039,895.427856 734.901978,901.010620 
M723.091125,931.453247 
	C723.631287,926.263367 724.700684,921.055542 724.525574,915.889893 
	C724.408875,912.448730 721.775635,909.900330 717.787170,909.787292 
	C713.714355,909.671814 710.780457,911.734070 710.183777,915.540894 
	C709.558960,919.527405 709.315002,923.869873 710.241943,927.736145 
	C711.749451,934.023621 716.860413,935.505554 723.091125,931.453247 
z"/>
<path fill="#F6304F" opacity="1.000000" stroke="none" 
	d="
M447.296143,941.000732 
	C445.918518,940.229309 444.973389,939.470459 443.974640,938.668579 
	C434.973999,942.935608 428.421295,942.293701 423.516541,936.585876 
	C417.770142,929.898621 417.086609,916.313660 422.123108,908.893372 
	C426.695007,902.157654 432.653259,900.969543 444.405151,904.745178 
	C444.405151,898.171204 444.405151,891.767517 444.405151,885.179626 
	C447.915405,885.179626 450.860352,885.179626 454.014709,885.179626 
	C454.014709,903.690918 454.014709,922.073303 454.014709,941.013428 
	C451.946320,941.013428 449.837494,941.013428 447.296143,941.000732 
M430.572784,930.776733 
	C433.365601,931.759338 436.636749,934.109802 438.819122,933.346619 
	C441.079865,932.555969 443.086029,928.939819 443.745087,926.207703 
	C444.534882,922.933655 444.184631,919.215759 443.583954,915.821777 
	C442.964325,912.320862 440.678192,909.847534 436.701630,909.779724 
	C432.638153,909.710388 429.508148,911.816650 429.205170,915.621033 
	C428.824371,920.402527 429.764587,925.289185 430.572784,930.776733 
z"/>
<path fill="#F4304F" opacity="1.000000" stroke="none" 
	d="
M231.340729,922.999023 
	C231.340881,916.200928 231.340881,909.902283 231.340881,902.876465 
	C234.379135,903.133057 236.921066,903.345398 239.462479,903.563721 
	C240.199036,903.627014 241.000885,903.936096 241.659668,903.744202 
	C248.241486,901.826294 248.341965,901.822144 251.552979,904.474365 
	C256.774292,903.838501 260.777832,902.397522 264.310028,903.154785 
	C269.044434,904.169922 269.067291,908.938416 269.078857,913.014343 
	C269.104706,922.120789 269.086914,931.227417 269.086914,940.675720 
	C266.376465,940.675720 263.989197,940.675720 260.432037,940.675720 
	C260.432037,930.214050 260.432037,919.749268 260.432037,908.918762 
	C254.588760,909.937744 254.454819,913.658203 254.335968,917.022095 
	C254.124466,923.008606 254.272324,929.007751 254.270233,935.001648 
	C254.269592,936.817688 254.270111,938.633789 254.270111,940.734924 
	C251.669769,940.734924 249.412582,940.734924 246.340393,940.734924 
	C246.340393,935.338135 246.351562,929.922729 246.336670,924.507507 
	C246.325699,920.512878 246.448563,916.505615 246.147934,912.531555 
	C246.058472,911.349182 244.737778,910.259888 243.981232,909.127991 
	C242.864090,909.984131 241.254181,910.619690 240.748444,911.749512 
	C240.037979,913.336609 239.957428,915.289001 239.939667,917.088440 
	C239.862732,924.874023 239.906723,932.660767 239.906723,940.731323 
	C237.000595,940.731323 234.574661,940.731323 231.340561,940.731323 
	C231.340561,934.998352 231.340561,929.248413 231.340729,922.999023 
z"/>
<path fill="#F7304F" opacity="1.000000" stroke="none" 
	d="
M394.153320,902.761230 
	C402.468811,904.704102 406.303711,908.574402 406.731842,916.447449 
	C407.162994,924.376099 406.826752,932.346497 406.826752,940.817627 
	C403.035095,940.135376 398.757904,943.572083 396.164703,938.087097 
	C391.333740,941.696045 386.053009,942.649963 380.208130,941.029236 
	C375.956726,939.850464 372.482910,937.298157 372.415802,933.084412 
	C372.361206,929.655029 373.609467,924.609009 376.041809,923.076904 
	C380.727264,920.125549 386.636078,919.078491 392.089020,917.409912 
	C393.456055,916.991699 395.018341,917.211426 397.987427,917.063110 
	C396.187286,914.466248 395.321625,911.827087 393.576904,910.963440 
	C388.511200,908.455505 383.586823,909.735840 379.287933,913.364075 
	C377.529175,911.580017 375.933868,909.961731 373.971344,907.970947 
	C379.751556,902.939209 386.303986,901.311279 394.153320,902.761230 
M382.470825,927.333557 
	C382.709869,929.268616 382.599030,932.726868 383.248352,932.876099 
	C386.117615,933.535278 389.442047,933.982849 392.157410,933.115723 
	C395.965973,931.899536 397.169678,928.325012 396.855164,922.914307 
	C391.950989,924.276978 387.502533,925.513062 382.470825,927.333557 
z"/>
<path fill="#F7304F" opacity="1.000000" stroke="none" 
	d="
M608.710938,923.857666 
	C614.972046,917.356262 623.098999,917.854980 630.747681,916.997009 
	C629.837219,908.886841 622.471069,907.355591 613.174072,913.261047 
	C611.685120,911.644165 610.153320,909.980774 608.589478,908.282532 
	C612.710938,902.840454 622.622375,900.536621 631.007874,903.276855 
	C637.127808,905.276855 640.657898,910.275208 640.863525,917.938538 
	C641.063477,925.390137 640.906921,932.851379 640.906921,940.835327 
	C637.022583,940.143311 632.742004,943.555176 630.214172,938.226440 
	C622.592834,942.856323 613.660706,942.876831 608.935059,938.273804 
	C605.259216,934.693359 605.101990,929.946289 608.710938,923.857666 
M624.017944,934.024292 
	C629.185486,932.808411 630.953674,929.275757 631.005249,923.464417 
	C626.671326,924.175049 622.696655,924.405396 619.055359,925.628296 
	C617.570496,926.127014 615.866211,928.861755 616.004395,930.425049 
	C616.123474,931.771545 618.620605,933.059875 620.262024,934.049500 
	C620.981506,934.483215 622.187683,934.109619 624.017944,934.024292 
z"/>
<path fill="#F7304F" opacity="1.000000" stroke="none" 
	d="
M217.400986,908.759521 
	C218.404877,915.930969 219.317780,922.785950 219.924377,929.667908 
	C220.229309,933.127502 219.977554,936.636292 219.977554,940.769897 
	C216.179565,940.306702 212.115433,943.219788 209.119812,938.190918 
	C204.517410,941.511230 199.296127,942.695374 193.424133,941.081177 
	C189.173523,939.912659 186.199524,937.536011 185.275986,933.284790 
	C184.367111,929.101196 185.342087,924.671509 189.145660,922.740845 
	C194.037140,920.257935 199.567444,918.989868 204.889832,917.427673 
	C206.378830,916.990601 208.104813,917.360962 209.789093,917.360962 
	C208.835770,908.886597 201.472061,907.356323 192.166275,913.265625 
	C190.771988,911.558899 189.336456,909.801697 187.832642,907.960938 
	C193.822876,900.054382 209.483948,900.013733 217.400986,908.759521 
M209.697617,927.720459 
	C209.812744,926.616089 209.927872,925.511719 210.137451,923.501282 
	C205.817032,924.174133 201.814407,924.319763 198.202499,925.582703 
	C196.644943,926.127380 195.107513,928.970581 195.075897,930.795776 
	C195.056992,931.887146 197.856445,933.726929 199.589752,934.012695 
	C204.078720,934.752625 207.701492,933.118958 209.697617,927.720459 
z"/>
<path fill="#F7304F" opacity="1.000000" stroke="none" 
	d="
M981.142944,922.055664 
	C981.781250,914.117310 984.163147,907.536316 991.470032,904.069885 
	C997.803162,901.065369 1004.229370,901.307190 1009.860596,905.623718 
	C1016.060120,910.375732 1016.806702,917.244202 1016.239868,924.907227 
	C1007.718689,924.907227 999.475098,924.907227 991.231445,924.907227 
	C990.844727,925.347534 990.458008,925.787903 990.071289,926.228210 
	C991.837158,928.466309 993.156372,931.541565 995.460510,932.770813 
	C1000.492432,935.455322 1005.741211,934.798157 1010.457458,930.858704 
	C1012.042175,932.253784 1013.510620,933.546509 1014.948425,934.812195 
	C1010.808411,940.918274 1003.271545,943.191101 994.881653,941.075562 
	C986.651184,939.000244 982.359131,933.193726 981.142944,922.055664 
M992.930359,912.449036 
	C992.219727,914.113342 991.509094,915.777710 990.669861,917.743164 
	C996.612000,917.743164 1001.699280,917.743164 1008.575623,917.743164 
	C1006.297485,914.673767 1005.072937,911.295532 1003.159180,910.844910 
	C1000.184814,910.144714 996.741394,911.436279 992.930359,912.449036 
z"/>
<path fill="#F7304F" opacity="1.000000" stroke="none" 
	d="
M888.780518,911.921448 
	C893.239441,904.754333 899.331055,901.359497 907.425232,902.493225 
	C915.494507,903.623413 920.737122,908.480774 922.821289,916.222900 
	C924.953430,924.143188 923.418762,931.424622 917.151550,937.191711 
	C906.897156,946.627869 889.661804,941.162537 887.165222,927.253906 
	C886.310547,922.492126 888.049500,917.264832 888.780518,911.921448 
M900.232849,911.515259 
	C895.053040,916.204163 895.090332,922.005127 897.000488,928.004333 
	C898.140320,931.584229 900.682068,933.920471 904.686951,934.072937 
	C908.730591,934.226929 911.718628,932.030640 912.610901,928.472656 
	C913.540039,924.767456 913.952698,920.559631 913.160217,916.879700 
	C911.832031,910.712158 907.051575,908.832947 900.232849,911.515259 
z"/>
<path fill="#F7304F" opacity="1.000000" stroke="none" 
	d="
M518.789001,937.231689 
	C512.264587,930.878662 511.035889,923.378174 513.364502,915.393433 
	C515.238586,908.966980 519.649170,904.469177 526.375305,902.851135 
	C535.045410,900.765503 543.484192,904.656250 547.404968,912.344666 
	C551.772888,920.909912 549.696655,931.764282 542.538879,937.783325 
	C536.006470,943.276672 526.854187,943.150940 518.789001,937.231689 
M522.376526,926.602112 
	C523.933350,930.986938 526.352783,934.410583 531.633240,934.030579 
	C536.376526,933.689392 538.834656,930.258179 539.510986,926.233582 
	C540.091125,922.782349 540.053894,918.652832 538.615295,915.616577 
	C537.442261,913.140686 534.019531,910.954712 531.187805,910.231506 
	C527.410278,909.266602 524.298584,911.984436 523.241760,915.537537 
	C522.280579,918.769226 522.512634,922.355774 522.376526,926.602112 
z"/>
<path fill="#FA304F" opacity="1.000000" stroke="none" 
	d="
M969.010376,921.065308 
	C969.010376,927.846191 969.010376,934.138062 969.010376,940.716919 
	C965.860901,940.716919 963.103882,940.716919 959.511536,940.716919 
	C959.511536,936.052246 959.516235,931.337219 959.509766,926.622192 
	C959.505737,923.652832 959.594238,920.677917 959.444458,917.715454 
	C959.254150,913.948975 958.854919,910.120361 953.886047,909.705566 
	C949.784363,909.363098 945.574829,913.045288 945.240540,917.675476 
	C944.869751,922.809509 945.055054,927.984070 945.013794,933.141113 
	C944.994141,935.596741 945.010437,938.052612 945.010437,940.755493 
	C941.783813,940.755493 939.024841,940.755493 936.006836,940.755493 
	C936.006836,928.232117 936.006836,915.812134 936.006836,903.190491 
	C938.802307,903.190491 941.439148,903.190491 944.514954,903.190491 
	C944.796570,904.306458 945.121094,905.592346 945.344849,906.478821 
	C949.006958,905.012817 952.348022,902.980896 955.925903,902.394958 
	C962.381653,901.337585 967.739319,906.511658 968.764709,914.102295 
	C969.052429,916.232483 968.939453,918.416809 969.010376,921.065308 
z"/>
<path fill="#FA304F" opacity="1.000000" stroke="none" 
	d="
M664.010376,935.853760 
	C663.920715,937.782349 663.831116,939.228394 663.720825,941.009277 
	C661.605652,941.009277 659.803345,941.041443 658.002869,940.996338 
	C657.038635,940.972168 656.077759,940.815002 654.942627,940.700378 
	C654.942627,928.236145 654.942627,915.950562 654.942627,903.327087 
	C657.777039,903.327087 660.513794,903.327087 663.642761,903.327087 
	C663.841125,904.329102 664.078552,905.528381 664.379639,907.049072 
	C665.102722,906.732605 665.775452,906.615417 666.197205,906.226196 
	C670.527832,902.228516 675.528381,900.948242 680.877563,903.466003 
	C686.345093,906.039551 687.913391,911.171997 687.983643,916.787354 
	C688.081421,924.598145 688.008301,932.411011 688.008301,940.616089 
	C684.911011,940.616089 682.021484,940.616089 678.548218,940.616089 
	C678.548218,933.449219 678.606140,926.210144 678.530884,918.972412 
	C678.464050,912.547424 676.620972,909.740479 672.657837,909.670044 
	C668.055054,909.588257 664.206177,913.797974 664.052246,919.392456 
	C663.905823,924.715088 664.014099,930.044617 664.010376,935.853760 
z"/>
<path fill="#F4304F" opacity="1.000000" stroke="none" 
	d="
M1043.514404,902.351685 
	C1050.655151,901.817322 1056.812500,903.035461 1062.112671,908.165710 
	C1060.611694,910.397888 1059.164185,912.550537 1057.452759,915.095764 
	C1053.705933,910.089233 1048.821289,908.838623 1043.290527,910.181274 
	C1042.073486,910.476624 1040.358521,911.765503 1040.253662,912.744629 
	C1040.148560,913.727356 1041.553345,915.436707 1042.672119,915.880615 
	C1046.212891,917.285278 1049.972900,918.125122 1053.568604,919.406311 
	C1060.319336,921.811646 1063.274414,925.507996 1062.889893,930.734436 
	C1062.513184,935.855530 1058.278931,939.839539 1051.767822,941.199036 
	C1043.316772,942.963623 1035.748901,941.169861 1028.945190,935.549438 
	C1030.203369,933.061584 1031.517212,930.463562 1033.126953,927.280457 
	C1037.233032,933.077637 1042.726318,934.729797 1048.887695,933.903259 
	C1050.693115,933.661011 1052.293823,931.892151 1053.988281,930.822998 
	C1052.679443,929.375183 1051.636597,927.348633 1050.006714,926.599426 
	C1046.561768,925.016235 1042.756226,924.241150 1039.197510,922.876404 
	C1034.531616,921.087036 1031.099854,918.018860 1031.199463,912.600464 
	C1031.281982,908.106445 1034.889038,904.654358 1040.655029,902.942200 
	C1041.450806,902.705994 1042.274658,902.564148 1043.514404,902.351685 
z"/>
<path fill="#FA304F" opacity="1.000000" stroke="none" 
	d="
M495.497986,933.401245 
	C496.891327,935.555969 497.837372,937.685059 499.135345,940.606079 
	C488.800476,940.606079 479.756073,940.606079 470.348938,940.606079 
	C470.348938,938.505371 470.348938,936.276794 470.348938,933.670349 
	C473.214417,933.466125 476.132904,933.258179 479.389221,933.026123 
	C479.389221,925.716309 479.389221,918.641785 479.389221,911.041077 
	C475.626282,909.939209 467.562714,912.786377 471.195496,903.267395 
	C476.926910,903.267395 482.840240,903.267395 489.249878,903.267395 
	C489.249878,913.093750 489.249878,922.855408 489.249878,933.057129 
	C491.492279,933.180237 493.271484,933.277893 495.497986,933.401245 
z"/>
<path fill="#F4304F" opacity="1.000000" stroke="none" 
	d="
M340.246613,919.855591 
	C340.224945,926.929199 340.224945,933.566223 340.224945,940.612061 
	C336.909515,940.612061 333.895172,940.612061 330.606873,940.612061 
	C330.606873,928.217590 330.606873,915.969177 330.606873,903.032898 
	C334.298767,904.083130 339.199097,899.834961 340.755676,906.267639 
	C344.304291,904.904907 347.843719,902.604492 351.492004,902.416504 
	C354.952942,902.238159 358.527893,904.272156 362.800873,905.558472 
	C360.857483,909.400208 359.482147,912.118958 357.926178,915.194824 
	C355.230896,911.122070 352.096527,909.410339 347.636230,910.481628 
	C342.840118,911.633606 341.002167,915.022217 340.246613,919.855591 
z"/>
<path fill="#F4304F" opacity="1.000000" stroke="none" 
	d="
M875.658203,907.805298 
	C874.397400,910.339722 873.295959,912.544373 871.918152,915.302063 
	C868.997864,910.327881 865.029053,909.097229 860.350281,910.841736 
	C855.883667,912.507263 854.280640,916.323669 854.198669,920.772766 
	C854.079285,927.248535 854.167969,933.728210 854.167969,940.613708 
	C851.031677,940.613708 848.136414,940.613708 844.785645,940.613708 
	C844.785645,928.398499 844.785645,916.039246 844.785645,903.326172 
	C847.672241,903.326172 850.586548,903.326172 853.805725,903.326172 
	C854.081665,904.333252 854.415039,905.550171 854.588867,906.184753 
	C858.494263,904.804626 862.213684,902.657104 866.073547,902.365173 
	C869.785156,902.084473 874.126831,902.838623 875.658203,907.805298 
z"/>
<path fill="#F6F7F8" opacity="1.000000" stroke="none" 
	d="
M842.133911,697.933472 
	C845.808838,702.881714 845.582642,706.832825 841.731689,709.895081 
	C838.180725,712.718750 833.010742,712.227478 830.102295,708.789978 
	C827.292114,705.468628 827.315430,700.867554 830.482361,698.045715 
	C834.063232,694.855042 837.981445,695.071899 842.133911,697.933472 
z"/>
<path fill="#F7F8F9" opacity="1.000000" stroke="none" 
	d="
M733.187256,708.080444 
	C730.498413,709.485291 728.060913,711.479919 725.589600,711.522766 
	C720.545471,711.610291 717.106873,706.735107 718.061157,701.956360 
	C718.972900,697.390686 724.131104,694.641602 728.966980,696.143921 
	C733.730957,697.624023 735.519836,702.297791 733.187256,708.080444 
z"/>
<path fill="#F4304F" opacity="1.000000" stroke="none" 
	d="
M489.566162,891.324280 
	C488.737122,892.406860 488.182953,893.296082 487.393494,893.849609 
	C484.377014,895.964600 480.668182,895.187378 478.851746,891.988953 
	C477.056335,888.827576 478.006622,886.180298 480.991058,884.379822 
	C483.913544,882.616882 488.103973,883.983215 489.381042,887.122253 
	C489.846222,888.265503 489.635437,889.683899 489.566162,891.324280 
z"/>
<path fill="#FC304F" opacity="1.000000" stroke="none" 
	d="
M594.507202,340.234131 
	C594.574341,340.433746 594.550293,340.715759 594.514099,341.138977 
	C594.470276,340.771667 594.443115,340.544098 594.507202,340.234131 
z"/>
<path fill="#123259" opacity="1.000000" stroke="none" 
	d="
M527.431274,741.785156 
	C528.680176,734.544922 529.391541,727.589172 531.369751,721.014587 
	C532.715271,716.542542 536.701782,713.948669 541.805969,713.953003 
	C546.943176,713.957275 550.282288,716.692017 552.169373,721.148315 
	C557.543762,733.840210 557.232239,746.752014 552.627319,759.507690 
	C550.904541,764.279846 547.192383,767.358765 541.564636,767.289124 
	C536.183350,767.222534 532.449585,764.359985 530.972351,759.670532 
	C529.200134,754.044373 528.562378,748.060791 527.431274,741.785156 
z"/>
<path fill="#15355B" opacity="1.000000" stroke="none" 
	d="
M1011.664795,767.569824 
	C1009.149109,767.273865 1006.679565,767.531738 1005.012146,766.496948 
	C1003.470581,765.540405 1001.722839,763.025757 1001.969971,761.507141 
	C1002.369324,759.053650 1003.855286,755.437500 1005.720154,754.812683 
	C1011.354736,752.924561 1017.392517,752.239441 1023.441589,751.052368 
	C1024.112915,760.665161 1020.290161,765.702454 1011.664795,767.569824 
z"/>
<path fill="#15355B" opacity="1.000000" stroke="none" 
	d="
M293.787964,760.218750 
	C296.049774,757.611694 297.915314,754.262390 300.548706,753.472290 
	C305.319427,752.040955 310.547882,752.135132 315.653900,751.585083 
	C315.877838,762.686096 309.374298,768.813477 299.944733,767.412109 
	C295.974213,766.822083 293.439331,765.058838 293.787964,760.218750 
z"/>
<path fill="#123259" opacity="1.000000" stroke="none" 
	d="
M180.441055,764.752319 
	C172.978394,758.771301 173.667252,743.028748 178.268127,737.317566 
	C183.438660,730.899292 192.120667,730.858582 196.865799,737.584351 
	C201.597870,744.291626 201.442902,755.898865 196.533051,762.504761 
	C192.576523,767.828003 187.225662,768.671143 180.441055,764.752319 
z"/>
<path fill="#15355B" opacity="1.000000" stroke="none" 
	d="
M651.487671,735.452637 
	C655.979065,731.393005 660.879333,731.240479 665.645752,733.431274 
	C669.607422,735.252075 670.865723,739.136963 670.971863,743.692078 
	C663.336670,743.692078 655.811890,743.692078 647.161072,743.692078 
	C648.652954,740.761536 649.936096,738.240967 651.487671,735.452637 
z"/>
<path fill="#122F56" opacity="1.000000" stroke="none" 
	d="
M809.484375,909.990112 
	C816.054138,909.977295 818.602356,912.008606 818.938110,917.940979 
	C819.142029,921.542969 819.074890,925.329407 818.178711,928.786499 
	C816.697205,934.501953 810.630127,935.844055 806.515137,931.743896 
	C800.795898,926.045288 802.196655,914.220642 809.484375,909.990112 
z"/>
<path fill="#122F56" opacity="1.000000" stroke="none" 
	d="
M722.823486,931.751465 
	C716.860413,935.505554 711.749451,934.023621 710.241943,927.736145 
	C709.315002,923.869873 709.558960,919.527405 710.183777,915.540894 
	C710.780457,911.734070 713.714355,909.671814 717.787170,909.787292 
	C721.775635,909.900330 724.408875,912.448730 724.525574,915.889893 
	C724.700684,921.055542 723.631287,926.263367 722.823486,931.751465 
z"/>
<path fill="#122F56" opacity="1.000000" stroke="none" 
	d="
M430.353760,930.453613 
	C429.764587,925.289185 428.824371,920.402527 429.205170,915.621033 
	C429.508148,911.816650 432.638153,909.710388 436.701630,909.779724 
	C440.678192,909.847534 442.964325,912.320862 443.583954,915.821777 
	C444.184631,919.215759 444.534882,922.933655 443.745087,926.207703 
	C443.086029,928.939819 441.079865,932.555969 438.819122,933.346619 
	C436.636749,934.109802 433.365601,931.759338 430.353760,930.453613 
z"/>
<path fill="#122F56" opacity="1.000000" stroke="none" 
	d="
M382.762451,927.041382 
	C387.502533,925.513062 391.950989,924.276978 396.855164,922.914307 
	C397.169678,928.325012 395.965973,931.899536 392.157410,933.115723 
	C389.442047,933.982849 386.117615,933.535278 383.248352,932.876099 
	C382.599030,932.726868 382.709869,929.268616 382.762451,927.041382 
z"/>
<path fill="#122F56" opacity="1.000000" stroke="none" 
	d="
M623.595459,934.063477 
	C622.187683,934.109619 620.981506,934.483215 620.262024,934.049500 
	C618.620605,933.059875 616.123474,931.771545 616.004395,930.425049 
	C615.866211,928.861755 617.570496,926.127014 619.055359,925.628296 
	C622.696655,924.405396 626.671326,924.175049 631.005249,923.464417 
	C630.953674,929.275757 629.185486,932.808411 623.595459,934.063477 
z"/>
<path fill="#122F56" opacity="1.000000" stroke="none" 
	d="
M209.549667,928.105469 
	C207.701492,933.118958 204.078720,934.752625 199.589752,934.012695 
	C197.856445,933.726929 195.056992,931.887146 195.075897,930.795776 
	C195.107513,928.970581 196.644943,926.127380 198.202499,925.582703 
	C201.814407,924.319763 205.817032,924.174133 210.137451,923.501282 
	C209.927872,925.511719 209.812744,926.616089 209.549667,928.105469 
z"/>
<path fill="#122F56" opacity="1.000000" stroke="none" 
	d="
M993.213623,912.166321 
	C996.741394,911.436279 1000.184814,910.144714 1003.159180,910.844910 
	C1005.072937,911.295532 1006.297485,914.673767 1008.575623,917.743164 
	C1001.699280,917.743164 996.612000,917.743164 990.669861,917.743164 
	C991.509094,915.777710 992.219727,914.113342 993.213623,912.166321 
z"/>
<path fill="#122F56" opacity="1.000000" stroke="none" 
	d="
M900.566040,911.312622 
	C907.051575,908.832947 911.832031,910.712158 913.160217,916.879700 
	C913.952698,920.559631 913.540039,924.767456 912.610901,928.472656 
	C911.718628,932.030640 908.730591,934.226929 904.686951,934.072937 
	C900.682068,933.920471 898.140320,931.584229 897.000488,928.004333 
	C895.090332,922.005127 895.053040,916.204163 900.566040,911.312622 
z"/>
<path fill="#122F56" opacity="1.000000" stroke="none" 
	d="
M522.297607,926.193970 
	C522.512634,922.355774 522.280579,918.769226 523.241760,915.537537 
	C524.298584,911.984436 527.410278,909.266602 531.187805,910.231506 
	C534.019531,910.954712 537.442261,913.140686 538.615295,915.616577 
	C540.053894,918.652832 540.091125,922.782349 539.510986,926.233582 
	C538.834656,930.258179 536.376526,933.689392 531.633240,934.030579 
	C526.352783,934.410583 523.933350,930.986938 522.297607,926.193970 
z"/>
</svg>